<?xml version="1.0" encoding="utf-8"?>
<!-- Generator: Adobe Illustrator 16.0.0, SVG Export Plug-In . SVG Version: 6.00 Build 0)  -->
<!DOCTYPE svg PUBLIC "-//W3C//DTD SVG 1.1//EN" "http://www.w3.org/Graphics/SVG/1.1/DTD/svg11.dtd">
<svg version="1.1" xmlns="http://www.w3.org/2000/svg" xmlns:xlink="http://www.w3.org/1999/xlink" x="0px" y="0px"
	 width="49.125px" height="36.25px" viewBox="0 0 49.125 36.25" enable-background="new 0 0 49.125 36.25" xml:space="preserve">
<g id="TextBox" display="none">
	<g display="inline">
		<path fill="#353535" d="M6.75,18.248c-0.526-0.275-1.278-0.358-1.864-0.358c-2.163,0-3.381,1.529-3.381,3.596
			c0,2.103,1.183,3.597,3.381,3.597c0.549,0,1.386-0.072,1.864-0.358l0.048,0.717c-0.454,0.274-1.386,0.358-1.912,0.358
			c-2.628,0-4.206-1.732-4.206-4.313c0-2.532,1.625-4.312,4.206-4.312c0.49,0,1.481,0.083,1.912,0.311L6.75,18.248z"/>
		<path fill="#353535" d="M8.914,16.694h0.753v8.961H8.914V16.694z"/>
		<path fill="#353535" d="M13.944,19.419c1.972,0,2.844,1.529,2.844,3.189c0,1.661-0.872,3.19-2.844,3.19
			c-1.971,0-2.843-1.529-2.843-3.19C11.101,20.948,11.973,19.419,13.944,19.419z M13.944,25.153c1.314,0,2.02-1.135,2.02-2.545
			c0-1.409-0.705-2.545-2.02-2.545c-1.314,0-2.019,1.136-2.019,2.545C11.925,24.019,12.63,25.153,13.944,25.153z"/>
		<path fill="#353535" d="M22.966,24.222c0,0.466,0,0.943,0.047,1.434h-0.729v-1.087h-0.024c-0.251,0.549-0.705,1.23-1.971,1.23
			c-1.505,0-2.079-1.004-2.079-2.342v-3.896h0.753v3.704c0,1.147,0.406,1.888,1.445,1.888c1.374,0,1.804-1.207,1.804-2.222v-3.37
			h0.753V24.222z"/>
		<path fill="#353535" d="M29.682,25.655H28.93v-0.968h-0.024c-0.406,0.776-1.027,1.111-1.9,1.111c-1.672,0-2.509-1.386-2.509-3.19
			c0-1.852,0.717-3.189,2.509-3.189c1.195,0,1.792,0.872,1.9,1.171h0.024v-3.896h0.752V25.655z M27.125,25.153
			c1.338,0,1.805-1.434,1.805-2.545s-0.466-2.545-1.805-2.545c-1.434,0-1.804,1.362-1.804,2.545S25.691,25.153,27.125,25.153z"/>
		<path fill="#353535" d="M36.646,18.084l-1.088,0.645c-0.204-0.354-0.397-0.584-0.582-0.691c-0.191-0.122-0.439-0.184-0.742-0.184
			c-0.373,0-0.682,0.105-0.928,0.316c-0.245,0.208-0.368,0.469-0.368,0.784c0,0.434,0.322,0.783,0.968,1.049l0.887,0.362
			c0.722,0.292,1.249,0.648,1.583,1.069s0.501,0.937,0.501,1.547c0,0.818-0.272,1.494-0.817,2.028
			c-0.549,0.538-1.23,0.807-2.044,0.807c-0.771,0-1.409-0.229-1.912-0.688c-0.495-0.458-0.804-1.103-0.927-1.932l1.358-0.299
			c0.062,0.521,0.169,0.883,0.322,1.082c0.276,0.384,0.68,0.576,1.21,0.576c0.418,0,0.766-0.141,1.042-0.42
			c0.276-0.28,0.414-0.635,0.414-1.064c0-0.173-0.023-0.331-0.071-0.475c-0.049-0.145-0.123-0.276-0.225-0.397
			s-0.233-0.234-0.395-0.339c-0.161-0.105-0.354-0.207-0.576-0.303l-0.857-0.356c-1.217-0.514-1.825-1.266-1.825-2.256
			c0-0.667,0.255-1.226,0.766-1.674c0.511-0.453,1.146-0.68,1.905-0.68C35.271,16.592,36.071,17.09,36.646,18.084z"/>
		<path fill="#353535" d="M38.052,17.715c0-0.227,0.082-0.422,0.247-0.587s0.363-0.248,0.594-0.248c0.233,0,0.434,0.083,0.599,0.248
			c0.165,0.161,0.247,0.358,0.247,0.593s-0.082,0.434-0.247,0.599c-0.161,0.165-0.359,0.248-0.593,0.248
			c-0.234,0-0.435-0.083-0.6-0.248S38.052,17.953,38.052,17.715z M39.543,20.047v5.608h-1.296v-5.608H39.543z"/>
		<path fill="#353535" d="M41.184,20.047h1.296v0.519c0.249-0.261,0.463-0.438,0.639-0.53c0.188-0.096,0.425-0.144,0.709-0.144
			c0.633,0,1.134,0.276,1.502,0.829c0.407-0.553,0.958-0.829,1.653-0.829c1.263,0,1.895,0.766,1.895,2.298v3.466h-1.302V22.54
			c0-0.537-0.065-0.917-0.195-1.14c-0.135-0.227-0.355-0.34-0.663-0.34c-0.356,0-0.616,0.135-0.779,0.403
			c-0.164,0.269-0.245,0.7-0.245,1.295v2.896h-1.302v-3.098c0-0.998-0.287-1.497-0.863-1.497c-0.364,0-0.631,0.136-0.798,0.408
			c-0.167,0.273-0.25,0.703-0.25,1.29v2.896h-1.296V20.047z"/>
	</g>
	<g id="Cloud" display="inline">
		<polygon fill="#448AC9" points="21.535,17.168 21.535,14.588 21.031,14.588 21.031,17.168 21.179,17.168 21.179,17.812 
			21.386,17.812 21.386,17.168 		"/>
		<path fill="#448AC9" d="M25.424,11.701c-0.19-2.178-2.014-3.886-4.24-3.886c-1.526,0-2.861,0.806-3.613,2.01
			c-0.324-0.161-0.683-0.262-1.069-0.262c-1.21,0-2.202,0.899-2.366,2.065h-0.188c-1.708,0-3.092,1.383-3.092,3.092
			c0,1.706,1.384,3.092,3.092,3.092h6.091v-0.645h0.149v-2.58h-0.141v-1.587H19.7v0.942h0.099v0.348h-0.843v-0.348h0.099v-1.784
			h0.198H19.7h0.347v-0.15h0.744v-0.149h-0.546v-0.595h-0.297V10.57h0.297v-0.447h2.083v0.447h0.299v0.694h-0.299v0.595h-0.595
			v0.149h0.794v0.15h0.347h0.348h0.297v1.784h0.1v0.348h-0.842v-0.348h0.098v-0.942h-0.347v1.587h-0.148v2.58h0.148v0.645h2.242
			c1.707,0,3.09-1.386,3.09-3.092C27.859,13.236,26.815,12.002,25.424,11.701z"/>
	</g>
</g>
<g id="Cloud_Only" display="none">
	<g id="Cloud_2_" display="inline">
		<polygon fill="#448AC9" points="28.957,26.334 28.957,20.14 27.746,20.14 27.746,26.334 28.103,26.334 28.103,27.881 28.6,27.881 
			28.6,26.334 		"/>
		<path fill="#448AC9" d="M38.291,13.211c-0.456-5.226-4.832-9.328-10.177-9.328c-3.664,0-6.867,1.933-8.673,4.825
			c-0.776-0.388-1.641-0.627-2.567-0.627c-2.906,0-5.284,2.156-5.68,4.956h-0.454c-4.098,0-7.422,3.321-7.422,7.421
			s3.324,7.423,7.422,7.423h14.624v-1.547h0.358V20.14h-0.339v-3.81h-0.832v2.263h0.237v0.837h-2.023v-0.837h0.237V14.31h0.477
			h1.072h0.832v-0.36h1.788v-0.36h-1.311v-1.426h-0.716v-1.666h0.716V9.424h4.999v1.073h0.716v1.666H30.86v1.426h-1.429v0.36h1.905
			v0.36h0.834h0.834h0.713v4.283h0.239v0.837h-2.022v-0.837h0.236V16.33h-0.834v3.81h-0.355v6.194h0.355v1.547h5.382
			c4.098,0,7.421-3.323,7.421-7.423C44.14,16.897,41.633,13.932,38.291,13.211z"/>
	</g>
</g>
<g id="Outline_Text">
	<g>
		<path fill="#353535" d="M6.587,19.195c-0.524-0.274-1.275-0.357-1.859-0.357c-2.158,0-3.375,1.525-3.375,3.589
			c0,2.098,1.181,3.588,3.375,3.588c0.548,0,1.383-0.071,1.859-0.356l0.048,0.715c-0.453,0.274-1.383,0.358-1.908,0.358
			c-2.623,0-4.197-1.729-4.197-4.305c0-2.527,1.622-4.304,4.197-4.304c0.489,0,1.478,0.082,1.908,0.31L6.587,19.195z"/>
		<path fill="#353535" d="M8.741,17.646h0.751v8.942H8.741V17.646z"/>
		<path fill="#353535" d="M13.759,20.363c1.967,0,2.838,1.526,2.838,3.184c0,1.658-0.871,3.185-2.838,3.185
			s-2.837-1.526-2.837-3.185C10.922,21.89,11.792,20.363,13.759,20.363z M13.759,26.087c1.312,0,2.015-1.134,2.015-2.54
			c0-1.407-0.704-2.539-2.015-2.539s-2.015,1.132-2.015,2.539C11.745,24.953,12.448,26.087,13.759,26.087z"/>
		<path fill="#353535" d="M22.759,25.156c0,0.465,0,0.942,0.047,1.432h-0.728v-1.086h-0.023c-0.25,0.549-0.704,1.229-1.967,1.229
			c-1.503,0-2.075-1.002-2.075-2.338v-3.887h0.751v3.696c0,1.144,0.406,1.884,1.442,1.884c1.371,0,1.801-1.204,1.801-2.218v-3.362
			h0.752V25.156z"/>
		<path fill="#353535" d="M29.454,26.588h-0.75v-0.967h-0.023c-0.406,0.776-1.026,1.11-1.896,1.11c-1.669,0-2.504-1.385-2.504-3.185
			c0-1.848,0.716-3.184,2.504-3.184c1.192,0,1.789,0.871,1.896,1.168h0.023v-3.886h0.75V26.588z M26.903,26.087
			c1.336,0,1.801-1.431,1.801-2.54c0-1.108-0.465-2.539-1.801-2.539c-1.431,0-1.8,1.359-1.8,2.539
			C25.104,24.728,25.473,26.087,26.903,26.087z"/>
		<path fill="#353535" d="M36.397,19.036l-1.086,0.644c-0.202-0.352-0.396-0.582-0.58-0.688c-0.19-0.124-0.438-0.185-0.74-0.185
			c-0.371,0-0.679,0.106-0.925,0.316c-0.244,0.206-0.367,0.468-0.367,0.781c0,0.433,0.321,0.782,0.965,1.046l0.884,0.362
			c0.721,0.29,1.247,0.646,1.579,1.066c0.334,0.419,0.5,0.934,0.5,1.541c0,0.817-0.271,1.491-0.815,2.023
			c-0.547,0.536-1.227,0.805-2.038,0.805c-0.77,0-1.405-0.229-1.906-0.687c-0.495-0.457-0.802-1.1-0.924-1.927l1.354-0.298
			c0.061,0.521,0.169,0.881,0.322,1.079c0.275,0.383,0.677,0.574,1.205,0.574c0.418,0,0.765-0.139,1.04-0.419
			c0.275-0.278,0.412-0.632,0.412-1.062c0-0.172-0.022-0.329-0.071-0.473c-0.048-0.144-0.122-0.276-0.225-0.396
			c-0.101-0.121-0.232-0.234-0.392-0.34c-0.162-0.104-0.353-0.204-0.574-0.301l-0.855-0.355c-1.215-0.513-1.822-1.262-1.822-2.249
			c0-0.665,0.256-1.223,0.765-1.67c0.509-0.452,1.143-0.678,1.901-0.678C35.024,17.549,35.823,18.045,36.397,19.036z"/>
		<path fill="#353535" d="M37.798,18.668c0-0.226,0.083-0.42,0.247-0.585c0.165-0.165,0.363-0.247,0.592-0.247
			c0.232,0,0.434,0.082,0.597,0.247c0.165,0.16,0.247,0.358,0.247,0.591c0,0.234-0.082,0.434-0.247,0.599
			c-0.159,0.165-0.356,0.246-0.591,0.246c-0.233,0-0.433-0.081-0.598-0.246C37.881,19.107,37.798,18.905,37.798,18.668z
			 M39.286,20.994v5.594h-1.292v-5.594H39.286z"/>
		<path fill="#353535" d="M40.923,20.994h1.292v0.518c0.248-0.26,0.46-0.437,0.637-0.528c0.188-0.096,0.423-0.144,0.707-0.144
			c0.631,0,1.131,0.275,1.498,0.827c0.406-0.552,0.955-0.827,1.648-0.827c1.259,0,1.89,0.763,1.89,2.29v3.458h-1.299v-3.106
			c0-0.536-0.065-0.915-0.194-1.137c-0.136-0.227-0.354-0.34-0.661-0.34c-0.355,0-0.615,0.135-0.778,0.402
			c-0.162,0.269-0.243,0.699-0.243,1.291v2.89h-1.298v-3.09c0-0.996-0.287-1.493-0.86-1.493c-0.364,0-0.63,0.137-0.796,0.408
			c-0.168,0.271-0.25,0.7-0.25,1.285v2.89h-1.292V20.994z"/>
	</g>
	<g id="Cloud_1_">
		<polygon fill="#448AC9" points="21.328,18.124 21.328,15.551 20.825,15.551 20.825,18.124 20.974,18.124 20.974,18.767 
			21.18,18.767 21.18,18.124 		"/>
		<path fill="#448AC9" d="M25.206,12.672c-0.188-2.171-2.008-3.875-4.229-3.875c-1.521,0-2.852,0.803-3.603,2.005
			c-0.322-0.162-0.681-0.262-1.066-0.262c-1.207,0-2.195,0.897-2.359,2.06h-0.188c-1.703,0-3.083,1.38-3.083,3.083
			s1.38,3.084,3.083,3.084h6.075v-0.643h0.149v-2.573h-0.141v-1.583h-0.346v0.94h0.099v0.347h-0.84v-0.347h0.099v-1.78h0.198h0.445
			h0.346v-0.149h0.743V12.83h-0.545v-0.593h-0.297v-0.692h0.297v-0.446h2.077v0.446h0.298v0.692h-0.298v0.593h-0.594v0.148h0.792
			v0.149h0.346h0.347h0.297v1.78h0.099v0.347h-0.84v-0.347h0.098v-0.94h-0.346v1.583H22.17v2.573h0.147v0.643h2.235
			c1.703,0,3.082-1.381,3.082-3.084C27.635,14.204,26.595,12.972,25.206,12.672z"/>
	</g>
</g>
<g id="Layer_4" display="none">
	<rect x="10.833" y="11.833" display="inline" fill="#353535" width="7.583" height="8.75"/>
</g>
</svg>
