<?xml version="1.0" encoding="utf-8"?>
<!-- Generator: Adobe Illustrator 16.0.4, SVG Export Plug-In . SVG Version: 6.00 Build 0)  -->
<!DOCTYPE svg PUBLIC "-//W3C//DTD SVG 1.1//EN" "http://www.w3.org/Graphics/SVG/1.1/DTD/svg11.dtd">
<svg version="1.1" id="Layer_1" xmlns="http://www.w3.org/2000/svg" xmlns:xlink="http://www.w3.org/1999/xlink" x="0px" y="0px"
	 width="360px" height="53.5px" viewBox="0 0 360 53.5" enable-background="new 0 0 360 53.5" xml:space="preserve">
<path fill="#7B7D7F" d="M77.964,16.594c-1.601,0-2.401,2.804-2.401,9.211c0,6.405,0.86,9.206,2.462,9.206
	c1.603,0,2.405-2.801,2.405-9.206C80.43,19.398,79.566,16.594,77.964,16.594 M77.994,36.924c-3.262,0-4.463-3.852-4.463-11.118
	c0-7.271,1.202-11.119,4.463-11.119c3.267,0,4.468,3.849,4.468,11.119C82.462,33.072,81.261,36.924,77.994,36.924"/>
<path fill="#7B7D7F" d="M89.206,21.891c-0.679,0-1.355,0.402-1.941,0.954v11.277c0.71,0.645,1.325,0.986,2.064,0.986
	c1.447,0,1.787-2.836,1.787-6.594C91.116,23.925,90.623,21.891,89.206,21.891 M89.454,36.924c-0.895,0-1.603-0.494-2.188-1.049
	v5.482l-1.911,1.172V20.413h1.911v0.831c0.585-0.646,1.418-1.168,2.31-1.168c2.711,0,3.48,3.232,3.48,8.377
	C93.055,33.844,92.132,36.924,89.454,36.924"/>
<path fill="#7B7D7F" d="M99.215,21.954c-1.047,0-1.847,1.631-1.972,5.393h3.883C101.033,24.234,100.446,21.954,99.215,21.954
	 M97.213,29.162c0.062,3.545,0.615,5.881,2.031,5.881c1.018,0,1.449-0.645,2.312-2.094l1.326,1.047
	c-0.862,1.633-1.849,2.928-3.667,2.928c-2.649,0-3.881-3.08-3.881-8.318c0-5.542,1.418-8.53,3.942-8.53
	c2.464,0,3.759,2.988,3.759,8.655v0.432H97.213z"/>
<path fill="#7B7D7F" d="M111.288,36.582V24.511c0-1.942-0.46-2.62-1.569-2.62c-0.677,0-1.418,0.4-2.003,0.956v13.736h-1.91V20.413
	h1.91v0.802c0.647-0.617,1.447-1.141,2.618-1.141c2.095,0,2.864,1.634,2.864,4.314v12.195H111.288z"/>
<path fill="#7B7D7F" d="M125.303,36.924c-2.467,0-3.669-1.846-4.098-5.082l2.003-0.463c0.46,2.834,1.17,3.633,2.125,3.633
	c1.264,0,1.972-1.049,1.972-2.555c0-2.004-0.894-4.19-2.926-6.437c-2.313-2.589-2.959-4.22-2.959-6.901
	c0-2.433,1.356-4.433,3.729-4.433c2.495,0,3.449,1.691,4.063,4.248l-2,0.586c-0.587-2.218-1.081-2.926-2.126-2.926
	c-1.108,0-1.666,1.232-1.666,2.34c0,1.724,0.431,3.082,2.467,5.358c2.341,2.59,3.417,5.022,3.417,7.887
	C129.305,35.012,127.765,36.924,125.303,36.924"/>
<path fill="#7B7D7F" d="M135.743,21.954c-1.508,0-2.185,2.096-2.185,6.56c0,4.467,0.737,6.529,2.247,6.529s2.188-2.062,2.188-6.529
	C137.993,24.049,137.254,21.954,135.743,21.954 M135.775,36.924c-2.743,0-4.159-2.895-4.159-8.41c0-5.515,1.416-8.438,4.159-8.438
	c2.739,0,4.157,2.923,4.157,8.438C139.932,34.029,138.514,36.924,135.775,36.924"/>
<path fill="#7B7D7F" d="M148.062,36.582v-0.797c-0.646,0.617-1.447,1.139-2.618,1.139c-2.095,0-2.864-1.635-2.864-4.314V20.413
	h1.908v12.076c0,1.941,0.464,2.619,1.57,2.619c0.679,0,1.419-0.4,2.003-0.957V20.413h1.91v16.169H148.062z"/>
<path fill="#7B7D7F" d="M158.288,22.386c-0.525-0.277-0.894-0.37-1.479-0.37c-0.708,0-1.293,0.37-1.724,0.861v13.705h-1.908V20.413
	h1.908v0.802c0.587-0.648,1.357-1.141,2.278-1.141c0.739,0,1.108,0.123,1.51,0.309L158.288,22.386z"/>
<path fill="#7B7D7F" d="M163.804,36.924c-2.587,0-3.942-3.08-3.942-8.318c0-5.542,1.416-8.53,3.972-8.53
	c1.973,0,2.834,1.603,3.359,3.604l-1.693,0.859c-0.433-1.505-0.741-2.585-1.729-2.585c-1.23,0-1.97,2-1.97,6.621
	c0,3.852,0.524,6.469,2.065,6.469c0.8,0,1.169-0.707,1.846-2.465l1.541,0.926C166.515,35.629,165.466,36.924,163.804,36.924"/>
<path fill="#7B7D7F" d="M172.985,21.954c-1.05,0-1.85,1.631-1.971,5.393h3.878C174.803,24.234,174.218,21.954,172.985,21.954
	 M170.982,29.162c0.061,3.545,0.616,5.881,2.034,5.881c1.016,0,1.447-0.645,2.31-2.094l1.324,1.047
	c-0.86,1.633-1.848,2.928-3.665,2.928c-2.649,0-3.882-3.08-3.882-8.318c0-5.542,1.418-8.53,3.942-8.53
	c2.465,0,3.759,2.988,3.759,8.655v0.432H170.982z"/>
<path fill="#7B7D7F" d="M188.292,16.932h-1.048v7.702h1.048c1.786,0,2.863-1.417,2.863-3.912
	C191.155,18.256,190.078,16.932,188.292,16.932 M191.341,36.582l-2.372-10.163c-0.461,0.062-1.048,0.062-1.725,0.062v10.1h-1.972
	V15.024h3.08c2.711,0,4.805,1.787,4.805,5.542c0,2.529-0.923,4.191-2.248,5.115l2.526,10.901H191.341z"/>
<path fill="#7B7D7F" d="M199.407,21.954c-1.51,0-2.186,2.096-2.186,6.56c0,4.467,0.738,6.529,2.247,6.529s2.186-2.062,2.186-6.529
	C201.654,24.049,200.917,21.954,199.407,21.954 M199.438,36.924c-2.743,0-4.157-2.895-4.157-8.41c0-5.515,1.414-8.438,4.157-8.438
	c2.738,0,4.158,2.923,4.158,8.438C203.597,34.029,202.177,36.924,199.438,36.924"/>
<path fill="#7B7D7F" d="M210.187,21.891c-0.679,0-1.356,0.402-1.939,0.954v11.277c0.706,0.645,1.324,0.986,2.062,0.986
	c1.449,0,1.789-2.836,1.789-6.594C212.098,23.925,211.601,21.891,210.187,21.891 M210.432,36.924c-0.892,0-1.602-0.494-2.185-1.049
	v0.707h-1.911V15.301l1.911-1.17v7.113c0.583-0.646,1.414-1.168,2.31-1.168c2.71,0,3.479,3.232,3.479,8.377
	C214.036,33.844,213.112,36.924,210.432,36.924"/>
<path fill="#7B7D7F" d="M220.442,21.954c-1.51,0-2.188,2.096-2.188,6.56c0,4.467,0.741,6.529,2.249,6.529
	c1.51,0,2.188-2.062,2.188-6.529C222.691,24.049,221.95,21.954,220.442,21.954 M220.472,36.924c-2.74,0-4.155-2.895-4.155-8.41
	c0-5.515,1.415-8.438,4.155-8.438c2.744,0,4.159,2.923,4.159,8.438C224.631,34.029,223.216,36.924,220.472,36.924"/>
<path fill="#7B7D7F" d="M231.838,36.521c-0.556,0.248-1.139,0.402-1.847,0.402c-1.756,0-2.343-1.262-2.343-3.207V22.168h-1.354
	v-1.756h1.354v-5.112l1.849-1.17v6.282h2.31v1.756h-2.31v11.49c0,0.922,0.369,1.42,0.894,1.42c0.554,0,0.985-0.098,1.664-0.434
	L231.838,36.521z"/>
<path fill="#7B7D7F" d="M234.485,20.413h1.909v16.169h-1.909V20.413z M235.503,17.24c-0.708,0-1.326-0.708-1.326-1.447
	c0-0.801,0.618-1.477,1.326-1.477c0.709,0,1.261,0.676,1.261,1.477C236.764,16.532,236.212,17.24,235.503,17.24"/>
<path fill="#7B7D7F" d="M243.235,36.924c-2.588,0-3.944-3.08-3.944-8.318c0-5.542,1.418-8.53,3.973-8.53
	c1.972,0,2.835,1.603,3.358,3.604l-1.695,0.859c-0.431-1.505-0.737-2.585-1.723-2.585c-1.232,0-1.972,2-1.972,6.621
	c0,3.852,0.522,6.469,2.062,6.469c0.804,0,1.171-0.707,1.848-2.465l1.539,0.926C245.943,35.629,244.896,36.924,243.235,36.924"/>
<path fill="#7B7D7F" d="M251.982,36.924c-1.91,0-3.02-1.416-3.575-3.328l1.633-0.955c0.524,1.662,1.078,2.438,1.972,2.438
	c1.141,0,1.726-0.865,1.726-1.945c0-1.383-0.247-2.248-2.278-4.002c-1.882-1.632-2.896-2.926-2.896-5.146
	c0-2.185,1.355-3.91,3.42-3.91c1.846,0,2.832,1.202,3.417,2.923l-1.726,0.956c-0.398-1.137-0.86-2.031-1.785-2.031
	c-0.892,0-1.447,0.741-1.447,1.879c0,1.199,0.341,2.003,2.247,3.633c2.036,1.726,2.928,3.265,2.928,5.513
	C255.616,35.166,254.136,36.924,251.982,36.924"/>
<polygon fill="#7B7D7F" points="265.809,16.932 265.809,24.262 269.444,24.262 269.444,26.174 265.809,26.174 265.809,36.582 
	263.837,36.582 263.837,15.024 270.892,15.024 270.892,16.932 "/>
<path fill="#7B7D7F" d="M276.223,21.954c-1.508,0-2.188,2.096-2.188,6.56c0,4.467,0.739,6.529,2.249,6.529
	c1.512,0,2.19-2.062,2.19-6.529C278.474,24.049,277.73,21.954,276.223,21.954 M276.252,36.924c-2.739,0-4.155-2.895-4.155-8.41
	c0-5.515,1.416-8.438,4.155-8.438c2.744,0,4.158,2.923,4.158,8.438C280.41,34.029,278.996,36.924,276.252,36.924"/>
<path fill="#7B7D7F" d="M288.543,36.582v-0.797c-0.647,0.617-1.447,1.139-2.618,1.139c-2.095,0-2.863-1.635-2.863-4.314V20.413
	h1.907v12.076c0,1.941,0.461,2.619,1.57,2.619c0.681,0,1.417-0.4,2.004-0.957V20.413h1.907v16.169H288.543z"/>
<path fill="#7B7D7F" d="M299.137,36.582V24.511c0-1.942-0.461-2.62-1.57-2.62c-0.679,0-1.418,0.4-2.003,0.956v13.736h-1.91V20.413
	h1.91v0.802c0.647-0.617,1.449-1.141,2.617-1.141c2.095,0,2.865,1.634,2.865,4.314v12.195H299.137z"/>
<path fill="#7B7D7F" d="M309.484,22.877c-0.708-0.647-1.324-0.987-2.063-0.987c-1.447,0-1.786,2.835-1.786,6.594
	c0,4.587,0.493,6.623,1.907,6.623c0.681,0,1.357-0.4,1.942-0.957V22.877z M309.484,36.582v-0.828
	c-0.585,0.648-1.418,1.17-2.311,1.17c-2.712,0-3.48-3.238-3.48-8.381c0-5.389,0.925-8.47,3.604-8.47
	c0.892,0,1.602,0.493,2.187,1.049v-5.822l1.91-1.17v22.451H309.484z"/>
<path fill="#7B7D7F" d="M319.493,28.543c-0.554-0.334-0.892-0.554-1.817-0.554c-1.355,0-1.693,1.326-1.693,3.482
	c0,1.941,0.338,3.637,1.508,3.637c0.618,0,1.418-0.373,2.003-0.986V28.543z M319.493,36.582v-0.77
	c-0.675,0.648-1.448,1.111-2.371,1.111c-2.096,0-3.08-1.912-3.08-5.393c0-3.666,1.232-5.357,3.573-5.357
	c0.769,0,1.355,0.216,1.878,0.586v-2.652c0-1.508-0.522-2.155-1.571-2.155c-0.708,0-1.353,0.462-2.278,1.419l-1.14-1.449
	c1.14-1.141,2.31-1.85,3.541-1.85c2.096,0,3.358,0.803,3.358,3.881v12.628H319.493z"/>
<path fill="#7B7D7F" d="M329.011,36.521c-0.556,0.248-1.141,0.402-1.848,0.402c-1.757,0-2.342-1.262-2.342-3.207V22.168h-1.353
	v-1.756h1.353v-5.112l1.849-1.17v6.282h2.308v1.756h-2.308v11.49c0,0.922,0.369,1.42,0.892,1.42c0.553,0,0.987-0.098,1.666-0.434
	L329.011,36.521z"/>
<path fill="#7B7D7F" d="M331.659,20.413h1.908v16.169h-1.908V20.413z M332.674,17.24c-0.71,0-1.324-0.708-1.324-1.447
	c0-0.801,0.614-1.477,1.324-1.477c0.712,0,1.265,0.676,1.265,1.477C333.938,16.532,333.386,17.24,332.674,17.24"/>
<path fill="#7B7D7F" d="M340.59,21.954c-1.508,0-2.187,2.096-2.187,6.56c0,4.467,0.737,6.529,2.249,6.529
	c1.51,0,2.187-2.062,2.187-6.529C342.839,24.049,342.1,21.954,340.59,21.954 M340.619,36.924c-2.74,0-4.157-2.895-4.157-8.41
	c0-5.515,1.417-8.438,4.157-8.438c2.744,0,4.159,2.923,4.159,8.438C344.778,34.029,343.363,36.924,340.619,36.924"/>
<path fill="#7B7D7F" d="M353.002,36.582V24.511c0-1.942-0.461-2.62-1.572-2.62c-0.677,0-1.416,0.4-2,0.956v13.736h-1.909V20.413
	h1.909v0.802c0.646-0.617,1.446-1.141,2.618-1.141c2.093,0,2.865,1.634,2.865,4.314v12.195H353.002z"/>
<path fill="#7B7D7F" d="M24.185,23.16l0.026,0.017c-0.942,1.53-1.496,3.324-1.496,5.25c0,3.296,1.586,6.308,4.219,8.171
	l-8.211,13.135L6.282,28.185L19.515,5.267h14.948L24.185,23.16z"/>
<path fill="#7B7D7F" d="M46.768,49.732L38.56,36.598c2.632-1.863,4.219-4.875,4.219-8.171c0-5.532-4.501-10.035-10.033-10.035
	c-1.245,0-2.434,0.241-3.534,0.655l7.916-13.78h8.851l13.23,22.918L46.768,49.732z"/>
</svg>
